/* XPM */
static const char *play16[] = {
/* columns rows colors chars-per-pixel */
"16 16 3 1",
"  c #008080",
". c gray100",
"X c None",
/* pixels */
"XXXXXXXXXXXXXXXX",
"XX  XXXXXXXXXXXX",
"XX    XXXXXXXXXX",
"XX      XXXXXXXX",
"XX        XXXXXX",
"XX          XXXX",
"XX            XX",
"XX             X",
"XX             X",
"XX           XXX",
"XX         XXXXX",
"XX       XXXXXXX",
"XX     XXXXXXXXX",
"XX    XXXXXXXXXX",
"XX  XXXXXXXXXXXX",
"XXXXXXXXXXXXXXXX"
};
